<?xml version="1.0" standalone="no"?>
<!DOCTYPE svg PUBLIC "-//W3C//DTD SVG 20010904//EN" "http://www.w3.org/TR/2001/REC-SVG-20010904/DTD/svg10.dtd">
<svg xmlns="http://www.w3.org/2000/svg" version="1.0" width="442.000000pt" height="565.000000pt" viewBox="0 0 442.000000 565.000000" preserveAspectRatio="xMidYMid meet">
<metadata>
Created by potrace 1.16, written by Peter Selinger 2001-2019
<meta name="Producer" content="Online-Convert"/></metadata>
<g transform="translate(0.000000,565.000000) scale(0.100000,-0.100000)" fill="#000000" stroke="none">
<path d="M3260 5439 c-146 -31 -152 -34 -246 -118 -28 -25 -70 -59 -92 -75 -52 -37 -160 -147 -201 -206 -97 -138 -186 -278 -236 -370 -31 -58 -60 -112 -65 -120 -21 -35 -133 -276 -155 -333 -35 -94 -57 -137 -71 -137 -7 0 -40 55 -75 123 -34 67 -71 134 -81 150 -11 15 -42 71 -69 125 -27 53 -68 127 -91 164 -24 37 -71 111 -106 165 -85 134 -127 189 -186 250 -28 28 -67 69 -86 90 -41 45 -247 183 -322 216 -146 65 -186 72 -342 58 -156 -13 -193 -24 -314 -87 -111 -57 -215 -156 -245 -232 -24 -60 -26 -226 -3 -270 8 -16 20 -51 27 -78 21 -87 49 -165 74 -202 49 -75 36 -168 -40 -286 -53 -83 -72 -146 -74 -242 -1 -104 22 -174 88 -263 64 -87 77 -115 100 -208 37 -150 50 -180 105 -245 98 -117 188 -298 220 -443 29 -135 40 -346 27 -522 -11 -153 -11 -165 8 -227 23 -74 66 -164 90 -187 23 -22 68 -79 89 -110 57 -88 108 -152 168 -214 67 -69 159 -184 219 -275 16 -25 46 -66 67 -91 39 -48 128 -218 128 -244 0 -23 54 -121 103 -189 59 -82 125 -115 347 -175 106 -28 309 -29 375 -1 156 65 141 53 353 295 43 49 97 156 107 210 6 38 15 58 59 136 20 35 149 192 226 274 26 28 72 86 103 130 99 140 225 255 316 286 22 8 34 22 47 55 19 49 16 105 -11 219 -21 92 -22 317 -2 490 14 116 32 184 86 340 6 17 20 57 32 90 30 88 116 232 173 293 28 29 76 69 108 89 l58 36 0 91 c0 105 15 167 60 260 40 81 37 114 -20 231 -49 101 -60 158 -60 298 0 142 26 259 78 363 58 114 66 147 57 248 -8 97 -27 131 -94 165 -20 11 -44 28 -55 40 -16 17 -108 66 -191 102 -27 11 -141 37 -190 42 -22 3 -71 10 -110 15 -96 15 -223 19 -265 11z m-2148 -162 c100 -32 193 -95 301 -204 172 -174 267 -325 463 -734 195 -409 266 -539 298 -539 19 0 53 40 71 85 82 200 540 994 651 1129 96 116 227 207 374 258 92 31 100 33 250 32 118 0 170 -4 220 -18 96 -26 194 -82 244 -137 101 -112 101 -244 2 -453 -49 -103 -69 -178 -86 -313 l-12 -93 46 -52 c137 -156 133 -316 -13 -450 -31 -29 -111 -84 -177 -123 -497 -291 -1021 -711 -1391 -1117 -74 -81 -143 -150 -155 -153 -57 -19 -98 87 -123 320 -40 372 -156 1063 -209 1248 -158 541 -416 953 -707 1129 -117 71 -159 82 -304 83 -121 0 -134 -2 -180 -26 -76 -39 -130 -130 -67 -115 54 14 268 18 322 7 72 -15 147 -50 194 -91 37 -33 96 -123 96 -147 0 -23 -42 -14 -95 21 -89 60 -163 80 -295 79 -116 0 -282 -23 -329 -46 -41 -19 -39 -58 8 -135 55 -92 74 -152 121 -384 43 -212 58 -258 93 -296 12 -13 85 -56 162 -94 148 -75 238 -129 398 -242 74 -52 109 -70 141 -73 46 -6 88 10 120 46 25 27 67 27 84 0 8 -12 20 -78 27 -148 7 -69 16 -138 20 -154 9 -34 -6 -53 -48 -63 -39 -8 -73 -30 -82 -52 -4 -9 -10 -46 -14 -82 -6 -63 -7 -65 -33 -63 -42 3 -92 30 -207 113 -134 96 -367 245 -540 344 -216 124 -359 246 -403 345 -27 58 -26 142 1 204 12 27 46 74 76 106 53 56 55 60 55 113 0 56 -19 119 -85 283 -59 147 -81 272 -65 373 26 162 113 248 290 286 113 24 124 25 275 21 116 -2 153 -7 217 -28z m-188 -925 c-6 10 -5 10 8 1 8 -7 19 -9 23 -5 5 4 5 1 1 -5 -5 -10 35 -12 181 -11 103 0 196 5 206 10 9 5 17 16 17 26 1 34 75 -104 141 -260 l28 -68 -32 0 c-44 0 -205 44 -289 79 -106 45 -206 113 -283 192 -62 64 -66 70 -32 51 21 -12 35 -16 31 -10z m2980 -668 c31 -12 18 -58 -36 -125 -104 -130 -171 -247 -231 -409 -89 -240 -116 -397 -126 -740 -8 -238 -10 -260 -33 -323 -30 -79 -67 -136 -118 -180 -21 -18 -75 -84 -121 -147 -110 -153 -188 -249 -274 -340 -86 -90 -113 -136 -155 -256 -25 -72 -48 -113 -112 -200 -97 -132 -129 -166 -190 -205 -71 -46 -135 -59 -290 -59 -340 0 -499 98 -613 380 -64 157 -100 209 -368 532 -162 195 -318 403 -346 462 -23 46 -25 64 -32 325 -10 330 -32 473 -106 691 -32 94 -47 124 -144 283 -67 109 -79 135 -79 172 0 79 49 73 114 -14 104 -143 202 -379 306 -741 44 -154 137 -435 227 -690 87 -246 238 -537 300 -577 40 -26 49 -5 28 70 -11 40 -15 81 -12 108 3 24 9 70 13 101 l6 57 -49 49 c-103 103 -398 673 -469 907 -85 277 -127 457 -122 519 9 110 86 15 258 -316 92 -179 140 -294 169 -407 25 -101 87 -245 148 -343 25 -40 108 -185 185 -323 78 -137 152 -270 166 -295 80 -141 258 -260 389 -260 120 0 267 97 379 250 75 103 414 731 447 830 8 25 20 63 26 85 6 22 37 85 70 139 33 55 74 136 92 180 49 128 195 416 237 471 77 102 96 38 33 -119 -22 -56 -51 -145 -65 -198 -25 -96 -56 -171 -76 -183 -5 -3 -10 -26 -10 -50 0 -55 -31 -141 -81 -222 -48 -78 -113 -206 -102 -201 4 2 21 10 36 18 41 20 61 4 65 -51 5 -60 -9 -102 -88 -261 -100 -201 -122 -338 -33 -211 77 110 172 332 194 451 6 31 24 89 40 130 36 91 55 178 63 297 7 99 13 122 82 316 75 213 171 388 297 543 70 86 79 92 111 80z m-815 -688 c51 -46 45 -101 -17 -159 -37 -36 -73 -33 -86 5 -19 55 34 200 67 182 7 -4 23 -16 36 -28z m-1715 2 c24 -38 39 -129 27 -160 -20 -53 -86 -25 -127 53 -19 38 -12 72 21 105 30 30 60 31 79 2z m149 -88 c129 -82 169 -161 129 -254 -27 -61 -60 -77 -107 -52 -18 10 -48 33 -66 52 -32 33 -33 35 -37 144 -3 79 -1 114 8 125 17 20 19 20 73 -15z m1427 -70 c0 -134 -26 -192 -102 -231 -50 -26 -62 -24 -92 11 -30 36 -41 85 -31 138 8 42 87 127 152 161 l38 20 18 -21 c12 -14 17 -37 17 -78z m-1143 -136 c99 -71 106 -86 98 -224 -10 -187 -39 -204 -153 -86 l-72 74 0 122 c0 67 5 130 10 141 17 30 47 23 117 -27z m887 24 c12 -17 16 -49 16 -135 l0 -112 -71 -80 c-39 -43 -80 -82 -91 -84 -46 -12 -68 59 -68 224 0 63 3 71 32 105 38 43 126 104 150 104 9 0 24 -10 32 -22z m-1143 -180 c56 -52 57 -54 63 -124 8 -82 -1 -149 -21 -165 -20 -17 -111 79 -148 157 -36 74 -46 172 -20 197 14 15 19 15 43 3 15 -8 52 -38 83 -68z m1414 65 c42 -41 -12 -212 -97 -308 -76 -86 -103 -60 -95 90 3 50 8 97 12 105 7 17 143 130 155 130 5 0 16 -8 25 -17z m-963 -120 c9 -10 30 -48 47 -85 17 -36 42 -73 55 -81 44 -29 56 -48 56 -87 0 -53 -8 -70 -34 -70 -34 0 -137 55 -171 90 -29 30 -30 34 -29 127 0 82 3 97 19 109 25 18 39 18 57 -3z m442 1 c12 -12 16 -37 16 -111 l0 -95 -37 -34 c-66 -61 -171 -102 -188 -74 -3 5 -6 30 -7 56 -1 44 3 50 42 82 26 22 53 59 71 95 44 93 70 114 103 81z m-655 -200 l74 -68 -6 -106 c-6 -122 -23 -187 -54 -207 -19 -13 -24 -11 -59 19 -21 18 -50 53 -66 77 -27 44 -28 48 -28 192 0 121 3 150 16 163 20 21 32 14 123 -70z m947 51 c3 -12 4 -85 2 -162 l-3 -140 -43 -56 c-23 -31 -56 -63 -72 -72 -27 -14 -30 -14 -48 10 -21 27 -38 110 -46 219 l-4 70 61 64 c96 101 140 120 153 67z m-701 -193 c33 -16 74 -41 92 -56 49 -41 57 -79 50 -246 -6 -173 -26 -249 -68 -264 -61 -21 -149 25 -218 114 l-34 45 6 133 c7 147 27 239 63 277 29 31 36 31 109 -3z m429 -2 c14 -17 30 -47 36 -68 14 -48 33 -289 26 -326 -7 -35 -75 -118 -119 -145 -47 -29 -111 -37 -140 -18 -38 24 -49 79 -54 267 -5 169 -4 176 17 203 39 49 150 115 197 117 6 0 23 -14 37 -30z"/>
<path d="M3424 4900 c-150 -22 -302 -110 -456 -263 -138 -137 -224 -283 -297 -502 -56 -169 -116 -473 -97 -493 18 -17 376 65 532 123 191 71 376 175 481 269 44 40 50 51 67 122 23 95 96 304 181 514 47 116 60 158 52 168 -19 23 -81 50 -142 61 -65 12 -242 13 -321 1z m-418 -545 l-6 -25 217 4 c241 3 253 4 270 26 7 8 13 10 13 4 0 -5 -24 -40 -54 -76 -89 -108 -206 -188 -361 -247 -89 -35 -271 -78 -281 -68 -8 7 1 30 64 172 67 153 158 292 138 210z"/>
</g>
</svg>
